<?xml version="1.0" encoding="UTF-8"?>
<svg width="752pt" height="752pt" version="1.1" viewBox="0 0 752 752" xmlns="http://www.w3.org/2000/svg">
 <g>
  <path d="m462.54 377.34c0.085938-0.44922 0.24219-0.88672 0.24219-1.3398s-0.15625-0.89062-0.24219-1.3398c-0.085937-0.44531-0.10547-0.89453-0.27344-1.3203-0.17578-0.4375-0.50781-0.80078-0.77344-1.1992-0.24219-0.35938-0.38672-0.76562-0.69922-1.0898l-115.04-118.39c-2.7344-2.8125-7.2266-2.875-10.043-0.14062-2.8125 2.7344-2.8789 7.2305-0.14062 10.043l110.22 113.44-110.23 113.45c-2.7383 2.8125-2.6719 7.3125 0.14062 10.043 1.3828 1.3398 3.1641 2.0078 4.9492 2.0078 1.8516 0 3.7031-0.71875 5.0977-2.1562l115.04-118.39c0.3125-0.32031 0.46094-0.72266 0.69922-1.0898 0.26562-0.39844 0.59766-0.76172 0.77344-1.1992 0.17188-0.42188 0.19141-0.875 0.27734-1.3203z"/>
  <path d="m376 177.1c109.68 0 198.9 89.227 198.9 198.9 0.003906 109.68-89.223 198.91-198.9 198.91-109.68 0-198.9-89.227-198.9-198.91 0-109.68 89.227-198.9 198.9-198.9m0-14.207c-117.7 0-213.11 95.41-213.11 213.11s95.414 213.11 213.11 213.11c117.7 0 213.11-95.414 213.11-213.11-0.003907-117.7-95.418-213.11-213.12-213.11z"/>
 </g>
</svg>
