<?xml version="1.0" encoding="UTF-8"?>
<svg width="752pt" height="752pt" version="1.1" viewBox="0 0 752 752" xmlns="http://www.w3.org/2000/svg">
 <g>
  <path d="m306.21 376 110.23-113.45c2.7383-2.8125 2.6719-7.3125-0.14062-10.043-2.8086-2.7344-7.3086-2.6719-10.043 0.14062l-115.04 118.39c-0.3125 0.32031-0.46094 0.72266-0.69922 1.0898-0.26563 0.39844-0.59766 0.76172-0.77344 1.1992-0.17188 0.42578-0.1875 0.875-0.27344 1.3203-0.085937 0.44922-0.24219 0.88672-0.24219 1.3398s0.15625 0.89062 0.24219 1.3398c0.085938 0.44531 0.10547 0.89453 0.27344 1.3203 0.17578 0.4375 0.50781 0.80078 0.77344 1.1992 0.24219 0.35938 0.38672 0.76562 0.69922 1.0898l115.04 118.39c1.3906 1.4336 3.2422 2.1562 5.0977 2.1562 1.7852 0 3.5703-0.66797 4.9492-2.0078 2.8125-2.7344 2.8789-7.2305 0.14062-10.043z"/>
  <path d="m376 177.1c109.68 0 198.9 89.227 198.9 198.9 0.003906 109.68-89.223 198.91-198.9 198.91-109.68 0-198.9-89.227-198.9-198.91 0-109.68 89.227-198.9 198.9-198.9m0-14.207c-117.7 0-213.11 95.41-213.11 213.11s95.414 213.11 213.11 213.11c117.7 0 213.11-95.414 213.11-213.11-0.003907-117.7-95.418-213.11-213.12-213.11z"/>
 </g>
</svg>
